<?xml version="1.0" standalone="no"?>
<!DOCTYPE svg PUBLIC "-//W3C//DTD SVG 20010904//EN"
 "http://www.w3.org/TR/2001/REC-SVG-20010904/DTD/svg10.dtd">
<svg version="1.0" xmlns="http://www.w3.org/2000/svg"
 width="520.000000pt" height="327.000000pt" viewBox="0 0 520.000000 327.000000"
 preserveAspectRatio="xMidYMid meet">
<metadata>
Created by potrace 1.16, written by Peter Selinger 2001-2019
</metadata>
<g transform="translate(0.000000,327.000000) scale(0.100000,-0.100000)"
fill="#000000" stroke="none">
<path d="M2336 2623 c-10 -21 -68 -144 -128 -273 -61 -129 -130 -278 -155
-330 -99 -209 -133 -288 -133 -304 0 -15 10 -16 78 -14 l77 3 45 90 45 90 185
3 c102 1 195 0 206 -3 15 -3 33 -29 60 -90 43 -96 46 -98 139 -93 46 2 61 7
63 20 2 9 -31 90 -74 180 -42 89 -112 240 -156 333 -219 468 -216 463 -252
388z m103 -430 c34 -75 60 -143 59 -152 -3 -13 -23 -16 -131 -19 -150 -3 -148
-7 -93 116 77 174 86 192 95 192 5 0 36 -61 70 -137z"/>
<path d="M3581 2622 c-10 -20 -48 -109 -84 -197 -154 -377 -155 -379 -172
-337 -8 20 -55 177 -115 382 -24 80 -47 153 -52 163 -12 24 -178 26 -178 1 0
-8 56 -196 125 -417 184 -589 162 -529 197 -525 28 3 34 14 168 308 78 172
144 305 151 305 7 0 71 -127 146 -290 72 -159 137 -298 143 -307 6 -11 22 -18
39 -18 27 0 30 4 54 83 14 45 79 257 146 471 66 214 118 393 115 398 -9 13
-160 10 -171 -4 -6 -7 -36 -101 -67 -208 -100 -339 -107 -361 -118 -358 -10 4
-28 42 -123 268 -130 310 -135 320 -161 320 -17 0 -29 -10 -43 -38z"/>
<path d="M862 2638 c-17 -17 -17 -909 0 -926 18 -18 405 -16 486 3 199 47 341
197 374 393 10 62 10 85 -4 153 -22 104 -48 158 -115 230 -67 72 -137 113
-239 139 -65 17 -110 20 -284 20 -147 0 -209 -3 -218 -12z m480 -162 c57 -21
130 -83 163 -139 51 -88 51 -235 1 -322 -34 -58 -107 -120 -164 -140 -30 -11
-91 -19 -171 -23 -112 -4 -126 -3 -138 14 -18 25 -19 604 0 623 18 19 247 9
309 -13z"/>
<path d="M692 1153 l3 -238 35 0 35 0 2 55 c2 30 5 74 9 98 5 41 6 42 45 42
47 0 94 22 109 50 6 11 11 50 12 86 2 109 -40 142 -180 143 l-72 1 2 -237z"/>
<path d="M3260 1338 c0 -29 -2 -135 -4 -236 l-4 -182 23 -6 c55 -14 60 -7 65
101 l5 100 62 3 c58 3 63 5 69 28 9 35 -2 42 -71 46 l-60 3 -3 58 -3 57 86 0
85 0 0 40 0 40 -125 0 -125 0 0 -52z"/>
<path d="M4350 1150 l0 -240 40 0 40 0 0 240 0 240 -40 0 -40 0 0 -240z"/>
<path d="M2513 1333 c-19 -4 -23 -11 -23 -44 0 -35 -3 -39 -25 -39 -22 0 -25
-4 -25 -34 0 -30 3 -35 28 -38 l27 -3 5 -107 c6 -129 18 -148 99 -156 l51 -5
0 35 c0 30 -4 35 -32 43 l-33 10 -3 93 -3 92 31 0 c36 0 48 20 32 56 -8 16
-20 24 -37 24 -22 0 -25 4 -25 34 0 31 -16 49 -38 45 -4 -1 -17 -4 -29 -6z"/>
<path d="M1014 1247 c-2 -7 -3 -85 -2 -172 l3 -160 38 -3 37 -3 0 120 c0 134
7 151 65 151 33 0 44 16 45 63 0 23 -66 24 -99 1 -22 -16 -24 -16 -33 0 -11
19 -47 21 -54 3z"/>
<path d="M1296 1239 c-42 -33 -48 -55 -47 -158 2 -111 14 -138 77 -159 51 -17
100 -7 136 28 27 27 28 32 28 125 0 116 -12 146 -70 169 -54 22 -92 20 -124
-5z"/>
<path d="M1540 1241 c0 -11 11 -55 24 -98 68 -219 71 -234 55 -261 -8 -15 -25
-29 -39 -32 -20 -5 -25 -12 -25 -35 0 -29 2 -30 42 -29 71 1 84 21 139 205 61
208 73 253 68 261 -3 4 -20 8 -39 8 -32 0 -34 -2 -50 -57 -9 -32 -21 -75 -27
-95 -6 -21 -14 -35 -18 -33 -4 3 -16 37 -25 77 -24 100 -29 108 -70 108 -28 0
-35 -4 -35 -19z"/>
<path d="M1908 1244 c-44 -23 -58 -62 -58 -161 0 -106 18 -144 75 -163 79 -26
165 19 165 87 0 31 -2 33 -35 33 -28 0 -37 -5 -44 -24 -20 -51 -81 -33 -81 25
l0 29 80 0 c76 0 80 1 81 23 6 86 -13 131 -66 153 -43 18 -82 17 -117 -2z"/>
<path d="M2192 1226 c-37 -34 -37 -35 -40 -124 -4 -103 9 -140 61 -173 24 -15
44 -19 80 -16 54 5 82 25 98 74 15 47 6 63 -36 63 -28 0 -35 -4 -35 -19 0 -25
-24 -43 -52 -39 -22 3 -23 7 -23 93 l0 90 30 0 c23 0 33 -7 43 -27 10 -21 20
-28 43 -28 26 0 29 4 29 30 0 69 -45 110 -120 110 -32 0 -48 -7 -78 -34z"/>
<path d="M2759 1246 c-39 -22 -59 -74 -59 -149 0 -35 3 -78 6 -96 21 -104 189
-122 231 -24 12 29 14 58 10 123 -3 47 -9 93 -12 103 -17 42 -129 69 -176 43z
m101 -92 c14 -36 12 -138 -2 -152 -21 -21 -58 -14 -68 14 -13 33 -13 120 0
145 16 29 58 25 70 -7z"/>
<path d="M3587 1253 c-5 -9 -10 -155 -8 -276 l1 -68 38 3 37 3 0 170 0 170
-32 3 c-17 2 -33 -1 -36 -5z"/>
<path d="M3737 1253 c-9 -8 -9 -270 -1 -312 6 -30 9 -32 43 -29 l36 3 0 120
c0 66 4 126 8 133 5 6 19 12 33 12 35 0 44 -32 44 -161 l0 -110 38 3 37 3 3
131 c2 122 1 132 -20 164 -29 42 -77 59 -121 42 -21 -8 -35 -8 -41 -2 -11 11
-49 13 -59 3z"/>
<path d="M4070 1232 c-22 -23 -30 -40 -30 -66 0 -34 2 -36 34 -36 28 0 35 5
40 24 10 40 66 46 80 9 7 -17 -10 -43 -28 -43 -7 0 -35 -11 -63 -25 -37 -19
-54 -34 -62 -56 -24 -69 19 -129 91 -129 22 0 49 5 60 11 14 8 23 8 31 0 6 -6
22 -11 35 -11 l24 0 -4 145 c-3 142 -4 145 -30 172 -22 21 -39 27 -87 31 -56
4 -62 2 -91 -26z"/>
</g>
</svg>
