<?xml version="1.0" standalone="no"?>
<!DOCTYPE svg PUBLIC "-//W3C//DTD SVG 20010904//EN"
 "http://www.w3.org/TR/2001/REC-SVG-20010904/DTD/svg10.dtd">
<svg version="1.0" xmlns="http://www.w3.org/2000/svg"
 width="482.000000pt" height="278.000000pt" viewBox="0 0 482.000000 278.000000"
 preserveAspectRatio="xMidYMid meet">
<metadata>
Created by potrace 1.16, written by Peter Selinger 2001-2019
</metadata>
<g transform="translate(0.000000,278.000000) scale(0.100000,-0.100000)"
fill="#000000" stroke="none">
<path d="M4290 1959 c-107 -88 -207 -183 -314 -302 -44 -48 -81 -85 -83 -83
-3 2 16 51 40 108 25 57 51 122 58 146 11 39 11 44 -7 57 -20 15 -62 19 -80 7
-7 -4 -17 -26 -23 -49 -7 -24 -17 -43 -24 -43 -6 0 -90 -79 -184 -176 -95 -97
-173 -173 -173 -170 0 3 9 20 20 38 11 18 20 41 20 51 0 9 4 17 10 17 5 0 18
17 27 38 10 20 28 41 41 47 12 5 31 30 43 55 12 25 27 52 34 60 29 34 28 59
-4 90 -33 34 -78 40 -87 13 -3 -10 -10 -26 -15 -35 -5 -10 -9 -27 -9 -37 0
-21 -129 -281 -153 -310 -30 -35 -57 -104 -45 -118 14 -17 43 -17 58 2 7 8 20
15 30 15 11 0 55 46 110 116 51 63 124 145 162 182 96 92 119 104 93 47 -16
-35 -120 -292 -129 -318 -7 -22 35 -41 73 -32 30 6 33 11 190 220 62 83 131
170 154 194 42 44 171 134 207 146 25 8 27 45 3 45 -10 -1 -29 -10 -43 -21z"/>
<path d="M3273 1923 c-7 -2 -42 -41 -78 -86 -70 -89 -67 -85 -128 -150 -40
-42 -47 -45 -110 -52 -37 -4 -70 -12 -73 -17 -3 -5 -3 -20 0 -34 5 -20 11 -24
29 -19 12 4 30 9 40 11 28 8 20 -19 -13 -41 -17 -11 -54 -49 -82 -84 -41 -50
-50 -66 -41 -80 5 -9 17 -16 26 -16 17 0 127 131 127 151 0 6 7 17 15 24 11 9
12 16 5 25 -5 6 -7 15 -3 18 11 12 21 8 26 -10 4 -17 5 -17 6 0 1 11 9 17 26
17 14 0 25 5 25 10 0 7 28 10 77 8 67 -3 77 -5 81 -23 7 -31 7 -74 -2 -145 -6
-51 -4 -69 7 -85 14 -19 15 -19 56 0 23 10 46 24 53 32 6 7 14 62 18 121 6 85
4 110 -7 123 -16 19 -12 112 8 217 8 38 9 66 3 71 -12 11 -75 21 -91 14z m-41
-183 c1 -33 2 -68 2 -77 1 -15 -9 -18 -62 -19 -46 -2 -65 2 -69 12 -3 8 -9 11
-14 8 -5 -3 -9 -2 -9 3 0 12 16 35 24 34 19 -3 26 3 52 42 54 79 73 78 76 -3z"/>
<path d="M2440 1903 c-102 -5 -107 -7 -115 -54 -4 -26 -3 -50 4 -63 10 -18 7
-38 -18 -111 -16 -49 -28 -91 -25 -94 6 -6 10 -1 36 53 26 55 48 71 48 34 0
-30 -38 -104 -72 -140 -18 -18 -22 -16 -19 15 4 33 -19 17 -44 -32 -66 -131
-45 -215 37 -146 16 14 39 25 51 25 31 0 53 15 37 25 -25 16 45 42 132 48 90
7 179 40 171 64 -2 6 4 14 14 17 10 3 33 19 51 36 19 17 37 28 42 25 14 -9 40
43 40 80 0 36 -27 102 -37 91 -3 -3 0 -13 7 -21 17 -21 15 -80 -5 -108 -18
-25 -20 -15 -3 16 10 20 10 21 -5 8 -10 -8 -17 -9 -17 -3 0 6 5 14 10 17 15
10 8 107 -10 128 -16 19 -45 23 -55 7 -4 -6 -15 -6 -31 0 -14 6 -36 10 -49 10
-15 0 -29 9 -36 21 -11 21 -10 22 42 15 30 -4 58 -11 64 -17 5 -5 14 -9 19 -9
29 0 -40 31 -100 45 -95 22 -91 21 -164 18z m182 -115 c63 -13 108 -50 108
-88 0 -24 -18 -59 -47 -88 -7 -7 -13 -17 -13 -21 0 -4 -18 -16 -40 -26 -23
-10 -44 -24 -48 -31 -12 -21 -272 -89 -272 -71 0 17 43 106 59 123 12 12 30
43 41 68 12 25 25 48 29 51 5 3 12 23 16 45 6 38 8 39 53 43 26 2 50 4 54 5 3
1 30 -3 60 -10z"/>
</g>
</svg>
