<?xml version="1.0" standalone="no"?>
<!DOCTYPE svg PUBLIC "-//W3C//DTD SVG 20010904//EN"
 "http://www.w3.org/TR/2001/REC-SVG-20010904/DTD/svg10.dtd">
<svg version="1.0" xmlns="http://www.w3.org/2000/svg"
 width="502.000000pt" height="255.000000pt" viewBox="0 0 502.000000 255.000000"
 preserveAspectRatio="xMidYMid meet">
<metadata>
Created by potrace 1.16, written by Peter Selinger 2001-2019
</metadata>
<g transform="translate(0.000000,255.000000) scale(0.100000,-0.100000)"
fill="#000000" stroke="none">
<path d="M2560 1729 c-109 -89 -202 -178 -314 -302 -43 -47 -83 -84 -89 -80
-5 3 -13 -1 -18 -8 -7 -12 -9 -11 -9 1 0 8 9 29 20 45 l21 30 -6 -30 c-8 -36
67 125 90 196 16 47 16 51 -1 70 -17 19 -59 25 -80 11 -7 -4 -17 -26 -23 -49
-7 -24 -17 -43 -24 -43 -6 0 -90 -79 -184 -176 -95 -97 -173 -172 -173 -167 0
4 9 22 20 38 11 17 20 38 20 48 0 9 4 17 9 17 5 0 18 17 28 38 11 20 29 41 41
47 12 5 29 26 38 45 9 19 25 47 35 62 29 40 25 83 -10 107 -44 32 -68 27 -86
-15 -8 -20 -15 -45 -15 -55 0 -21 -69 -162 -121 -250 -68 -114 -89 -161 -78
-176 32 -37 98 8 203 139 50 62 100 122 112 133 78 76 134 125 142 125 9 0
-34 -119 -77 -215 -72 -159 -72 -170 0 -170 31 0 45 6 60 25 11 14 78 102 149
196 143 190 203 250 308 309 46 26 72 46 72 58 0 23 -29 21 -60 -4z"/>
<path d="M1538 1689 c-10 -5 -28 -25 -41 -43 -21 -32 -78 -100 -159 -190 -34
-38 -42 -42 -110 -51 -72 -10 -73 -11 -71 -39 3 -37 4 -37 41 -27 18 6 34 6
37 1 6 -10 -29 -50 -43 -50 -17 0 -114 -130 -108 -145 12 -31 37 -29 64 6 15
19 36 43 47 55 28 28 69 110 61 122 -3 6 -1 14 5 18 6 3 15 0 20 -7 6 -10 9
-11 9 -1 0 6 11 12 25 12 14 0 25 5 25 10 0 7 28 10 77 8 67 -3 77 -5 81 -23
7 -32 7 -65 -2 -140 -6 -56 -4 -74 8 -90 15 -20 15 -20 63 5 l48 25 6 95 c3
52 9 103 14 113 5 11 2 24 -8 35 -18 20 -15 140 5 230 7 32 8 56 2 61 -15 14
-78 21 -96 10z"/>
<path d="M710 1673 c-100 -5 -107 -8 -115 -49 -3 -21 -2 -48 5 -63 9 -23 6
-42 -19 -116 -16 -49 -27 -92 -24 -95 3 -3 8 0 10 6 12 35 49 97 58 98 21 2
16 -47 -9 -85 -14 -21 -26 -42 -26 -46 0 -5 -12 -17 -27 -27 l-26 -19 7 26 c3
15 2 27 -3 27 -13 0 -71 -118 -71 -145 0 -11 -6 -27 -12 -34 -11 -10 -9 -15 6
-27 28 -20 44 -18 78 11 16 14 39 25 51 25 31 0 53 15 37 25 -25 16 45 42 132
48 61 5 100 14 132 30 26 13 44 26 41 29 -4 3 14 21 39 38 25 18 43 37 40 41
-3 5 6 9 19 9 18 0 28 8 37 30 19 46 -6 150 -32 134 -7 -4 -8 -3 -4 4 7 12
-27 52 -43 52 -5 0 -12 6 -14 13 -3 7 -6 5 -6 -6 -1 -14 -7 -17 -28 -13 -16 2
-40 5 -55 5 -17 1 -32 9 -39 23 -11 20 -10 21 35 15 67 -10 48 8 -25 22 -33 7
-66 13 -73 15 -6 1 -40 1 -76 -1z m210 -117 c30 -1 80 -55 80 -85 0 -41 -61
-119 -107 -138 -24 -10 -43 -23 -43 -29 0 -12 -210 -74 -247 -74 -13 0 -23 1
-23 3 0 17 43 106 59 123 12 12 30 43 41 68 12 25 25 48 29 51 5 3 12 23 16
45 6 38 8 39 53 43 26 2 63 2 82 -1 19 -3 46 -6 60 -6z"/>
</g>
</svg>
